<?xml version="1.0" standalone="no"?>
<!DOCTYPE svg PUBLIC "-//W3C//DTD SVG 20010904//EN"
 "http://www.w3.org/TR/2001/REC-SVG-20010904/DTD/svg10.dtd">
<svg version="1.0" xmlns="http://www.w3.org/2000/svg"
 width="500.000000pt" height="500.000000pt" viewBox="0 0 500.000000 500.000000"
 preserveAspectRatio="xMidYMid meet">
<metadata>
Created by potrace 1.14, written by Peter Selinger 2001-2017
</metadata>
<g transform="translate(0.000000,500.000000) scale(0.100000,-0.100000)"
fill="#000000" stroke="none">
<path d="M2142 4279 c-375 -79 -695 -327 -870 -674 -192 -382 -169 -854 59
-1221 67 -107 229 -279 335 -356 497 -357 1182 -303 1619 128 l64 62 10 -49
c34 -157 157 -272 329 -308 49 -10 132 -15 132 -8 0 2 9 68 20 147 11 79 20
154 20 166 l0 21 -39 -19 c-58 -29 -165 -43 -214 -28 -46 13 -125 88 -155 146
l-20 38 34 53 c123 193 194 438 194 673 0 595 -423 1110 -1009 1230 -135 27
-376 27 -509 -1z m343 -214 c70 -19 144 -63 178 -108 30 -40 60 -97 50 -97 -4
0 -41 10 -82 22 -65 19 -100 23 -231 23 -133 0 -166 -3 -233 -23 -44 -13 -81
-22 -83 -20 -6 7 52 93 82 122 44 41 85 64 145 80 71 19 102 19 174 1z m-775
-489 c0 -2 -16 -28 -36 -57 -85 -125 -135 -289 -138 -446 0 -57 -5 -92 -11
-90 -20 7 -85 104 -101 151 -24 72 -15 195 19 262 33 65 113 137 180 163 49
19 87 26 87 17z m1467 -17 c75 -29 148 -97 184 -174 56 -116 33 -273 -51 -367
l-39 -43 -1 66 c-1 177 -64 374 -166 517 -15 20 -15 22 -1 22 9 0 42 -10 74
-21z m-1363 -1146 c76 -70 193 -141 283 -173 84 -30 83 -37 -5 -65 -75 -25
-190 -17 -257 17 -114 59 -176 155 -183 285 -7 122 -1 127 57 52 26 -36 74
-88 105 -116z m1333 53 c-11 -117 -86 -224 -196 -278 -68 -33 -187 -37 -263
-8 -32 12 -58 25 -58 29 0 4 26 15 58 25 72 23 169 75 243 132 61 47 160 151
187 197 l17 28 8 -33 c5 -18 7 -59 4 -92z"/>
<path d="M555 1531 c-85 -40 -135 -120 -135 -218 0 -74 25 -129 79 -175 80
-69 216 -78 307 -22 27 16 50 37 52 45 1 8 -15 29 -37 47 l-40 32 -38 -26
c-92 -63 -207 14 -188 127 7 42 45 86 82 95 38 10 94 -3 119 -27 l23 -22 40
34 c45 39 48 49 23 72 -62 56 -207 75 -287 38z"/>
<path d="M990 1320 l0 -230 65 0 65 0 0 230 0 230 -65 0 -65 0 0 -230z"/>
<path d="M1280 1320 l0 -230 65 0 64 0 3 111 3 111 93 -111 93 -111 54 0 55 0
0 230 0 231 -62 -3 -63 -3 -5 -114 -5 -114 -83 101 c-112 137 -106 132 -163
132 l-49 0 0 -230z"/>
<path d="M1877 1544 c-4 -4 -7 -108 -7 -231 l0 -223 185 0 185 0 0 50 0 50
-120 0 -120 0 0 40 0 40 100 0 100 0 0 50 0 50 -100 0 -100 0 0 35 0 35 116 0
115 0 -3 53 -3 52 -171 3 c-93 1 -173 -1 -177 -4z"/>
<path d="M2377 1543 c-4 -3 -7 -107 -7 -230 l0 -223 70 0 70 0 0 75 0 75 101
0 100 0 -3 53 -3 52 -97 3 -98 3 0 44 0 45 110 0 110 0 0 55 0 55 -173 0 c-96
0 -177 -3 -180 -7z"/>
<path d="M2867 1544 c-4 -4 -7 -108 -7 -231 l0 -223 65 0 65 0 0 75 0 75 100
0 100 0 0 55 0 55 -100 0 -100 0 0 45 0 45 116 0 115 0 -3 53 -3 52 -171 3
c-93 1 -173 -1 -177 -4z"/>
<path d="M3347 1544 c-4 -4 -7 -108 -7 -231 l0 -223 70 0 70 0 -2 228 -3 227
-60 3 c-34 2 -64 0 -68 -4z"/>
<path d="M3637 1544 c-4 -4 -7 -108 -7 -231 l0 -223 175 0 175 0 0 55 0 55
-105 0 -105 0 -2 173 -3 172 -60 3 c-34 2 -64 0 -68 -4z"/>
<path d="M4231 1536 c-49 -18 -111 -74 -132 -120 -23 -51 -25 -143 -3 -194 79
-189 389 -189 468 0 22 51 20 143 -3 194 -22 49 -92 111 -140 124 -48 13 -148
11 -190 -4z m160 -113 c33 -20 59 -68 59 -111 0 -35 -36 -92 -70 -110 -34 -18
-97 -8 -126 19 -105 99 14 275 137 202z"/>
</g>
</svg>
